<svg width="389" height="390" viewBox="0 0 389 390" fill="none" xmlns="http://www.w3.org/2000/svg">
<circle cx="194.588" cy="195.066" r="85.9395" fill="white"/>
<circle cx="194.588" cy="195.066" r="66.5771" fill="#5FBD63"/>
<path d="M194.588 0.933807L212.152 115.056H177.023L194.588 0.933807Z" fill="white"/>
<path d="M194.588 389.066L177.023 274.944L212.152 274.944L194.588 389.066Z" fill="white"/>
<path d="M388.61 195.066L274.488 212.631L274.488 177.502L388.61 195.066Z" fill="white"/>
<path d="M0.300537 195.066L114.423 177.502L114.423 212.631L0.300537 195.066Z" fill="white"/>
<path fill-rule="evenodd" clip-rule="evenodd" d="M194.588 329.822C269.012 329.822 329.344 269.49 329.344 195.066C329.344 120.642 269.012 60.3101 194.588 60.3101C120.164 60.3101 59.8317 120.642 59.8317 195.066C59.8317 269.49 120.164 329.822 194.588 329.822ZM194.588 309.467C257.77 309.467 308.988 258.248 308.988 195.066C308.988 131.885 257.77 80.6657 194.588 80.6657C131.406 80.6657 80.1873 131.885 80.1873 195.066C80.1873 258.248 131.406 309.467 194.588 309.467Z" fill="white"/>
<path fill-rule="evenodd" clip-rule="evenodd" d="M194.588 313.007C259.725 313.007 312.528 260.203 312.528 195.066C312.528 129.929 259.725 77.1256 194.588 77.1256C129.451 77.1256 76.6471 129.929 76.6471 195.066C76.6471 260.203 129.451 313.007 194.588 313.007ZM194.588 295.191C249.885 295.191 294.713 250.364 294.713 195.066C294.713 139.769 249.885 94.9411 194.588 94.9411C139.29 94.9411 94.4626 139.769 94.4626 195.066C94.4626 250.364 139.29 295.191 194.588 295.191Z" fill="#534A48"/>
<g style="mix-blend-mode:multiply" opacity="0.5">
<path fill-rule="evenodd" clip-rule="evenodd" d="M194.588 389.066L203.753 329.516C270.873 325.007 324.527 271.354 329.037 204.235L388.61 195.066L329.037 185.897C324.528 118.785 270.884 65.1359 203.774 60.6182L194.588 0.933807L194.588 389.066ZM293.654 209.681C287.278 253.282 252.8 287.758 209.199 294.133L211.475 279.347C245.39 272.589 272.109 245.872 278.868 211.957L293.654 209.681ZM209.22 96.0026C252.811 102.386 287.279 136.858 293.654 180.452L278.868 178.176C272.11 144.268 245.401 117.554 211.496 110.789L209.22 96.0026Z" fill="#534A48"/>
</g>
</svg>
